<svg xmlns="http://www.w3.org/2000/svg" xmlns:xlink="http://www.w3.org/1999/xlink" width="500" zoomAndPan="magnify" viewBox="0 0 375 374.999991" height="500" preserveAspectRatio="xMidYMid meet" version="1.0"><defs><clipPath id="5efc26028a"><path d="M 252.019531 81.011719 L 279.019531 81.011719 L 279.019531 101 L 252.019531 101 Z M 252.019531 81.011719 " clip-rule="nonzero"/></clipPath><clipPath id="e2fa943636"><path d="M 31.40625 51.105469 L 350.15625 51.105469 L 350.15625 278 L 31.40625 278 Z M 31.40625 51.105469 " clip-rule="nonzero"/></clipPath></defs><g clip-path="url(#5efc26028a)"><path fill="#ff0000" d="M 253.480469 81.695312 C 253.480469 81.695312 252.019531 81.964844 252.019531 85.734375 C 252.019531 89.503906 252.105469 98.828125 252.75 99.46875 C 254.546875 101.253906 261.996094 100.011719 269.3125 100.210938 C 276.628906 100.414062 279.019531 100.144531 279.019531 97.988281 C 279.019531 95.835938 278.355469 84.792969 278.355469 83.042969 C 278.355469 81.292969 277.957031 81.023438 272.769531 81.023438 C 267.582031 81.023438 253.480469 81.695312 253.480469 81.695312 Z M 253.480469 81.695312 " fill-opacity="1" fill-rule="nonzero"/></g><path fill="#ffffff" d="M 260.519531 86.421875 C 260.519531 86.421875 260.820312 94.195312 261.019531 94.800781 C 261.21875 95.410156 261.320312 96.117188 263.914062 95.308594 C 266.507812 94.5 270.597656 91.46875 270.597656 91.46875 C 270.597656 91.46875 271.894531 90.5625 270.597656 89.855469 C 269.300781 89.148438 261.71875 85.914062 261.71875 85.914062 C 261.71875 85.914062 260.480469 85.40625 260.519531 86.421875 Z M 260.519531 86.421875 " fill-opacity="1" fill-rule="nonzero"/><g clip-path="url(#e2fa943636)"><path fill="#ff0000" d="M 48.652344 59.046875 C 48.652344 59.046875 31.414062 62.191406 31.414062 106.1875 C 31.414062 150.183594 32.394531 258.980469 40.03125 266.46875 C 61.246094 287.265625 149.179688 272.789062 235.539062 275.128906 C 321.898438 277.46875 350.164062 274.324219 350.164062 249.183594 C 350.164062 224.039062 342.3125 95.1875 342.3125 74.761719 C 342.3125 54.332031 337.601562 51.191406 276.363281 51.191406 C 215.125 51.191406 48.652344 59.046875 48.652344 59.046875 Z M 48.652344 59.046875 " fill-opacity="1" fill-rule="nonzero"/></g><path fill="#ffffff" d="M 131.761719 114.1875 C 131.761719 114.1875 135.296875 204.933594 137.652344 212.003906 C 140.007812 219.074219 141.183594 227.324219 171.800781 217.894531 C 202.421875 208.46875 250.703125 173.113281 250.703125 173.113281 C 250.703125 173.113281 266.011719 162.503906 250.703125 154.253906 C 235.394531 146.003906 145.894531 108.292969 145.894531 108.292969 C 145.894531 108.292969 131.277344 102.371094 131.761719 114.1875 Z M 131.761719 114.1875 " fill-opacity="1" fill-rule="nonzero"/></svg>